<svg width="17" height="17" viewBox="0 0 17 17" fill="none" xmlns="http://www.w3.org/2000/svg">
<g id="Close">
<path id="Vector" d="M9.42473 8.49916L14.1122 2.91166C14.1908 2.81881 14.1247 2.67773 14.0033 2.67773H12.5783C12.4944 2.67773 12.414 2.71523 12.3587 2.77952L8.49258 7.38845L4.62651 2.77952C4.57294 2.71523 4.49258 2.67773 4.40687 2.67773H2.98187C2.86044 2.67773 2.79437 2.81881 2.87294 2.91166L7.56044 8.49916L2.87294 14.0867C2.85534 14.1074 2.84405 14.1327 2.8404 14.1596C2.83676 14.1865 2.84092 14.2139 2.85239 14.2386C2.86386 14.2632 2.88216 14.284 2.90511 14.2985C2.92806 14.3131 2.9547 14.3207 2.98187 14.3206H4.40687C4.4908 14.3206 4.57115 14.2831 4.62651 14.2188L8.49258 9.60988L12.3587 14.2188C12.4122 14.2831 12.4926 14.3206 12.5783 14.3206H14.0033C14.1247 14.3206 14.1908 14.1795 14.1122 14.0867L9.42473 8.49916Z" fill="black"/>
</g>
</svg>
